<?xml version="1.0" encoding="UTF-8" standalone="no"?>
<svg width="177px" height="65px" viewBox="0 0 177 65" version="1.1" xmlns="http://www.w3.org/2000/svg" xmlns:xlink="http://www.w3.org/1999/xlink">
    <!-- Generator: Sketch 50.2 (55047) - http://www.bohemiancoding.com/sketch -->
    <title>RPC3</title>
    <desc>The Decentralized RPC.</desc>
    <defs>
        <polygon id="path-1" points="0.5163 0.9215 14.452 0.9215 14.452 12.3715 0.5163 12.3715"></polygon>
    </defs>
    <g id="Artboard-3" stroke="none" stroke-width="1" fill="none" fill-rule="evenodd">
        <path d="M93.0448055,35.3333333 C93.0448055,34.3245943 92.2442147,33.5126092 91.2496307,33.5126092 L76.2816347,33.5126092 L76.2816347,30.4873908 L91.2496307,30.4873908 C92.2442147,30.4873908 93.0448055,29.6754057 93.0448055,28.6666667 L93.0448055,26.8459426 C93.0448055,25.8382022 92.2442147,24.9972534 91.2496307,24.9972534 L74.9827671,24.9972534 L74.9827671,42 L72,42 L72,22 L91.2496307,22 C93.8739537,22 96,24.1573034 96,26.8459426 L96,28.6666667 C96,29.9270911 95.5302806,31.1046192 94.7021172,32.0004994 C95.5302806,32.8973783 96,34.0729089 96,35.3333333 L96,42 L93.0448055,42 L93.0448055,35.3333333 Z" id="Fill-1" fill="#000000"></path>
        <path d="M100,22 L119.249631,22 C121.872969,22 124,24.1564123 124,26.8461846 L124,28.6669996 C124,31.3278066 121.872969,33.5121854 119.249631,33.5121854 L104.28065,33.5121854 L104.28065,30.4878146 L119.249631,30.4878146 C120.244215,30.4878146 121.044806,29.6757891 121.044806,28.6669996 L121.044806,26.8461846 C121.044806,25.8383939 120.244215,24.9974031 119.249631,24.9974031 L102.982767,24.9974031 L102.982767,42 L100,42 L100,22 Z" id="Fill-3" fill="#000000"></path>
        <path d="M127,37.1540574 L127,26.8459426 C127,24.1563046 129.184853,22 131.907827,22 L151,22 L151,24.9972534 L131.907827,24.9972534 C130.886206,24.9972534 130.063851,25.8382022 130.063851,26.8459426 L130.063851,37.1540574 C130.063851,38.1627965 130.886206,38.9747815 131.907827,38.9747815 L151,38.9747815 L151,42 L131.907827,42 C129.184853,42 127,39.8426966 127,37.1540574" id="Fill-5" fill="#000000"></path>
        <g id="Group-9" transform="translate(155.000000, 30.000000)">
            <mask id="mask-2" fill="white">
                <use xlink:href="#path-1"></use>
            </mask>
            <g id="Clip-8"></g>
            <path d="M0.5163,10.6405 L11.6943,10.6405 C12.2713,10.6405 12.7363,10.1745 12.7363,9.5975 L12.7363,8.5555 C12.7363,7.9785 12.2713,7.5125 11.6943,7.5125 L2.0393,7.5125 L2.0393,5.7815 L11.6943,5.7815 C12.2713,5.7815 12.7363,5.3165 12.7363,4.7385 L12.7363,3.6965 C12.7363,3.1195 12.2713,2.6375 11.6943,2.6375 L0.5163,2.6375 L0.5163,0.9215 L11.6943,0.9215 C13.2173,0.9215 14.4523,2.1575 14.4523,3.6965 L14.4523,4.7385 C14.4523,5.4595 14.1803,6.1335 13.6993,6.6475 C14.1803,7.1605 14.4523,7.8335 14.4523,8.5555 L14.4523,9.5975 C14.4523,11.1375 13.2173,12.3715 11.6943,12.3715 L0.5163,12.3715 L0.5163,10.6405 Z" id="Fill-7" fill="#000000" mask="url(#mask-2)"></path>
        </g>
        <path d="M55.378487,49.2728175 L54.1930453,49.2728175 C53.9220021,49.2728175 53.6618801,49.1645962 53.4702635,48.9729749 L52.5717503,48.0754329 C52.3801337,47.8838116 52.2729078,47.6236833 52.2729078,47.3526335 L52.2729078,42.4389878 C52.2729078,41.7529241 51.7159289,41.1969246 51.0298818,41.1969246 L48.7831025,41.1969246 C48.2420089,41.1969246 47.7237505,40.9824676 47.3415101,40.6002179 L44.7939026,38.0525487 C44.4116621,37.6702991 44.1972104,37.1510352 44.1972104,36.6109214 L44.1972104,28.3880857 C44.1972104,27.8479719 44.4116621,27.3297009 44.7939026,26.9464584 L47.3405172,24.3997821 C47.7227577,24.0175324 48.2420089,23.8030754 48.7821096,23.8030754 L51.0298818,23.8030754 C51.7159289,23.8030754 52.2729078,23.2470759 52.2729078,22.5600194 L52.2729078,17.5689309 C52.2729078,17.291924 52.3850978,17.0268313 52.5846571,16.8332244 L53.4335287,16.0141179 C53.6241525,15.8294467 53.8783175,15.7271825 54.1434037,15.7271825 L55.378487,15.7271825 C55.722007,15.7271825 56,15.4491827 56,15.1056544 L56,12.6205352 C56,12.2779998 55.722007,12 55.378487,12 L52.8934279,12 C52.5509008,12 52.2729078,12.2779998 52.2729078,12.6205352 L52.2729078,13.7573556 C52.2729078,14.0343625 52.1597249,14.300448 51.9601656,14.4930621 L50.9792474,15.440247 C50.7886236,15.6239254 50.5344585,15.7271825 50.2693723,15.7271825 L45.4392435,15.7271825 C44.7531964,15.7271825 44.1972104,16.283182 44.1972104,16.9692457 L44.1972104,19.2160794 C44.1972104,19.7571861 43.9817658,20.2754571 43.5995254,20.6577067 L41.0519179,23.205376 C40.6696775,23.5876256 40.151419,23.8030754 39.6103255,23.8030754 L31.3896745,23.8030754 C30.848581,23.8030754 30.3303225,23.5876256 29.9480821,23.205376 L27.4004746,20.6577067 C27.0182342,20.2754571 26.8027896,19.7571861 26.8027896,19.2160794 L26.8027896,16.9692457 C26.8027896,16.283182 26.2468036,15.7271825 25.5607565,15.7271825 L20.6770147,15.7271825 C20.4059715,15.7271825 20.1458495,15.6189611 19.9542329,15.4273399 L19.0269275,14.5000121 C18.8353109,14.3083908 18.7270922,14.0482625 18.7270922,13.7772127 L18.7270922,12.6205352 C18.7270922,12.2779998 18.4490992,12 18.1065721,12 L15.621513,12 C15.277993,12 15,12.2779998 15,12.6205352 L15,15.1056544 C15,15.4491827 15.277993,15.7271825 15.621513,15.7271825 L16.8367396,15.7271825 C17.1077828,15.7271825 17.3679049,15.8344109 17.5595215,16.0260322 L18.4282497,16.8947815 C18.6198663,17.0864027 18.7270922,17.3465311 18.7270922,17.6175808 L18.7270922,22.5600194 C18.7270922,23.2460831 19.2840711,23.8030754 19.9701182,23.8030754 L22.2168975,23.8030754 C22.7579911,23.8030754 23.2762495,24.0175324 23.6594828,24.3997821 L26.2060974,26.9474513 C26.5883379,27.3297009 26.8027896,27.8479719 26.8027896,28.3890786 L26.8027896,36.6109214 C26.8027896,37.1510352 26.5883379,37.6702991 26.2060974,38.0525487 L23.6584899,40.6002179 C23.2762495,40.9824676 22.7579911,41.1969246 22.2168975,41.1969246 L19.9701182,41.1969246 C19.2840711,41.1969246 18.7270922,41.7529241 18.7270922,42.4389878 L18.7270922,47.3526335 C18.7270922,47.6236833 18.6198663,47.8838116 18.4282497,48.0754329 L17.5297365,48.9729749 C17.3381199,49.1645962 17.0779979,49.2728175 16.8069547,49.2728175 L15.621513,49.2728175 C15.277993,49.2728175 15,49.5508173 15,49.8943456 L15,52.378472 C15,52.7220002 15.277993,53 15.621513,53 L18.1065721,53 C18.4490992,53 18.7270922,52.7220002 18.7270922,52.378472 L18.7270922,51.1930016 C18.7270922,50.9219518 18.8353109,50.6618235 19.0269275,50.4702022 L19.9244479,49.5726601 C20.1160645,49.3810389 20.3761866,49.2728175 20.6472298,49.2728175 L25.5607565,49.2728175 C26.2468036,49.2728175 26.8027896,48.716818 26.8027896,48.0307543 L26.8027896,45.7829277 C26.8027896,45.2428139 27.0182342,44.7235501 27.4004746,44.3413004 L29.9470893,41.794624 C30.3293297,41.4113815 30.848581,41.1969246 31.3886817,41.1969246 L39.6103255,41.1969246 C40.151419,41.1969246 40.6696775,41.4113815 41.0529107,41.794624 L43.5995254,44.3413004 C43.9817658,44.7235501 44.1972104,45.2428139 44.1972104,45.7829277 L44.1972104,48.0307543 C44.1972104,48.716818 44.7531964,49.2728175 45.4392435,49.2728175 L50.3527702,49.2728175 C50.6238134,49.2728175 50.8839355,49.380046 51.0755521,49.5726601 L51.9730725,50.4692093 C52.1646891,50.6618235 52.2729078,50.9219518 52.2729078,51.1930016 L52.2729078,52.378472 C52.2729078,52.7220002 52.5509008,53 52.8934279,53 L55.378487,53 C55.722007,53 56,52.7220002 56,52.378472 L56,49.8943456 C56,49.5508173 55.722007,49.2728175 55.378487,49.2728175" id="Fill-10" fill="#8068FF"></path>
        <path d="M64.8136428,32.0580023 L62.9541445,30.2340749 C62.7046499,29.989353 62.3013852,29.989353 62.052909,30.2340749 L60.8278398,31.4357094 L58.6567278,31.4357094 L54.5090079,27.3663337 C54.0110371,26.8778888 53.2045077,26.8778888 52.7065369,27.3663337 L48.3734781,31.616504 C47.8755073,32.1039501 47.8755073,32.8960499 48.3734781,33.383496 L52.7065369,37.6336663 C53.2045077,38.1221112 54.0110371,38.1221112 54.5090079,37.6336663 L58.6567278,33.5652894 L60.8288581,33.5652894 L62.052909,34.7659251 C62.3013852,35.0096481 62.7046499,35.0096481 62.9541445,34.7659251 L64.8136428,32.9419977 C65.0621191,32.6982747 65.0621191,32.3017253 64.8136428,32.0580023" id="Fill-12" fill="#8068FF"></path>
        <path d="M36.3836008,45.3734781 C35.895167,44.8755073 35.1040839,44.8755073 34.61565,45.3734781 L30.3655763,49.7065369 C29.8781412,50.2045077 29.8781412,51.0110371 30.3655763,51.5090079 L34.1342081,55.3502059 C34.3269846,55.5467465 34.4348596,55.813553 34.4348596,56.0915612 L34.4348596,57.3940247 C34.4348596,57.6720329 34.3269846,57.9388394 34.1342081,58.13538 L33.2342512,59.052909 C32.9895349,59.3013852 32.9895349,59.7046499 33.2342512,59.9541445 L35.0581372,61.8136428 C35.3018547,62.0621191 35.6973962,62.0621191 35.9421126,61.8136428 L37.7659985,59.9541445 C38.009716,59.7046499 38.009716,59.3013852 37.7659985,59.052909 L36.8660416,58.13538 C36.6732651,57.9388394 36.5643913,57.6720329 36.5643913,57.3940247 L36.5643913,56.0915612 C36.5643913,55.813553 36.6732651,55.5467465 36.8660416,55.3491876 L40.6336746,51.5090079 C41.1221085,51.0110371 41.1221085,50.2045077 40.6336746,49.7065369 L36.3836008,45.3734781 Z" id="Fill-14" fill="#8068FF"></path>
        <path d="M34.6163992,19.6265219 C35.104833,20.1244927 35.8959161,20.1244927 36.38435,19.6265219 L40.6344237,15.2934631 C41.1218588,14.7954923 41.1218588,13.9889629 40.6344237,13.4909921 L36.8667908,9.65081243 C36.6740142,9.45325346 36.5651404,9.18644702 36.5651404,8.90843879 L36.5651404,7.60597529 C36.5651404,7.32796705 36.6740142,7.06116061 36.8667908,6.86461999 L37.7657488,5.94709098 C38.0104651,5.69861475 38.0104651,5.29535006 37.7657488,5.04585548 L35.9418628,3.18635717 C35.6981453,2.93788094 35.3026038,2.93788094 35.0578874,3.18635717 L33.2340015,5.04585548 C32.990284,5.29535006 32.990284,5.69861475 33.2340015,5.94709098 L34.1339584,6.86461999 C34.3267349,7.06116061 34.4356087,7.32796705 34.4356087,7.60597529 L34.4356087,8.90843879 C34.4356087,9.18644702 34.3267349,9.45325346 34.1339584,9.64979408 L30.3663254,13.4909921 C29.8778915,13.9889629 29.8778915,14.7954923 30.3663254,15.2934631 L34.6163992,19.6265219 Z" id="Fill-16" fill="#8068FF"></path>
        <path d="M12.611097,33.8278359 L16.4920105,37.6344237 C16.9889629,38.1218588 17.7965107,38.1218588 18.2934631,37.6344237 L22.6265219,33.38435 C23.1244927,32.8959161 23.1244927,32.104833 22.6265219,31.6163992 L18.2934631,27.3663254 C17.7965107,26.8778915 16.9889629,26.8778915 16.4920105,27.3663254 L12.6895095,31.0960024 C12.4919506,31.2897778 12.2241258,31.3976527 11.9450992,31.3966539 L10.6100487,31.3936574 C10.3320404,31.3926585 10.0672707,31.2847835 9.87073006,31.092007 L8.94709098,30.1860571 C8.69861475,29.9423396 8.29535006,29.9423396 8.04585548,30.1860571 L6.18635717,32.009943 C5.93788094,32.2546594 5.93788094,32.6502009 6.18635717,32.8939184 L8.04585548,34.7188032 C8.29535006,34.9625207 8.69861475,34.9625207 8.94709098,34.7188032 L9.85850992,33.8248394 C10.0560689,33.631064 10.3238937,33.5221902 10.6029203,33.523189 L11.8727967,33.5261856 C12.1497866,33.5271844 12.4155747,33.6360582 12.611097,33.8278359" id="Fill-18" fill="#8068FF"></path>
    </g>
</svg>